<svg width="1079" height="48" viewBox="0 0 1079 48" fill="none" xmlns="http://www.w3.org/2000/svg">
<path fill-rule="evenodd" clip-rule="evenodd" d="M309.15 9.99083C308.421 10.1868 304.412 11.2595 300.241 12.3747C296.07 13.49 291.53 14.7043 290.153 15.0732C288.776 15.4421 284.999 16.4526 281.759 17.3189C264.183 22.0186 249.141 26.0432 247.226 26.5586C244.624 27.259 243.561 27.4143 241.851 27.3438C239.202 27.2347 237.043 26.4084 235.492 24.9103C233.86 23.3337 233.114 21.2736 233.222 18.6436C233.305 16.6239 233.855 14.5474 234.938 12.1684C235.195 11.6039 235.397 11.1351 235.388 11.1265C235.379 11.1179 234.966 11.5994 234.471 12.1964C228.719 19.1277 225.311 25.2242 224.55 29.9461C224.385 30.9744 224.4 32.6526 224.585 33.556C224.967 35.431 225.958 36.8516 227.788 38.1482C231.506 40.7817 236.06 41.066 242.19 39.047C244.561 38.266 247.46 37.0837 258.234 32.5026C259.712 31.8741 262.379 30.7408 264.161 29.9842C265.943 29.2274 267.616 28.5152 267.88 28.4013C268.143 28.2874 270.396 27.3252 272.887 26.2629C279.314 23.5219 291.455 18.331 305.174 12.4588C308.171 11.1761 310.686 10.0659 310.762 9.99172C310.935 9.82361 310.87 9.62179 310.644 9.62923C310.551 9.63225 309.879 9.79497 309.15 9.99083Z" fill="#2D2D2D"/>
<path fill-rule="evenodd" clip-rule="evenodd" d="M670.655 0.609921C668.678 0.80042 666.357 1.94536 664.729 3.53342C662.987 5.23234 661.81 7.59401 661.603 9.80401C661.572 10.1434 661.586 10.951 661.628 11.1766L661.657 11.329L661.853 11.3569C662.139 11.3975 662.844 11.3731 663.206 11.31C664.587 11.0692 666.025 10.3894 667.311 9.37C667.699 9.06177 668.418 8.33438 668.772 7.89108C669.287 7.24587 669.724 6.55637 670.077 5.83286C670.591 4.77912 670.896 3.78228 671.062 2.60832C671.111 2.26903 671.133 1.21186 671.097 0.93887C671.049 0.561941 671.058 0.583964 670.95 0.587486C670.898 0.589178 670.765 0.599287 670.655 0.609921ZM669.769 11.9205C669.237 11.9519 668.515 12.0682 667.882 12.2246C667.049 12.4304 666.425 12.6428 664.955 13.2194C663.763 13.6873 663.393 13.8177 662.913 13.9391C662.305 14.0931 661.771 14.0893 661.113 13.9261C660.647 13.8106 660.307 13.6896 659.082 13.2041C657.904 12.7368 657.474 12.5813 656.917 12.42C655.559 12.0273 654.475 11.9399 653.109 12.1129C651.636 12.2995 650.21 12.7878 648.924 13.5464C646.423 15.0214 644.555 17.4036 643.549 20.3999C642.806 22.6129 642.546 25.1217 642.774 27.8787C642.982 30.4031 643.599 33.0827 644.556 35.6199C645.171 37.2485 646.002 38.9641 646.827 40.308C647.582 41.5367 649.103 43.5996 650.048 44.676C651.805 46.6783 653.435 47.531 655.256 47.401C656.215 47.3326 656.823 47.1617 658.3 46.5457C659.252 46.1484 659.65 45.9998 660.142 45.8574C661.631 45.4267 663.314 45.3888 664.772 45.7532C665.382 45.9057 665.733 46.0327 666.773 46.4768C668.063 47.0277 668.557 47.1834 669.369 47.2949C669.729 47.3444 670.502 47.3637 670.81 47.3308C672.229 47.1787 673.524 46.4741 674.812 45.153C675.598 44.3468 676.394 43.3332 677.538 41.6802C678.798 39.8578 679.921 37.6332 680.619 35.5741C680.831 34.9484 680.833 34.9425 680.765 34.9214C680.534 34.8502 679.654 34.3668 679.191 34.0578C676.548 32.2923 674.952 29.747 674.608 26.7467C674.321 24.2511 674.871 21.8775 676.207 19.8516C676.981 18.6773 678.099 17.5575 679.3 16.7552C679.454 16.6522 679.58 16.5569 679.58 16.5433C679.58 16.5046 679.266 16.0844 678.993 15.7584C677.066 13.4531 674.342 12.1283 671.118 11.9282C670.771 11.9067 670.071 11.9027 669.769 11.9205Z" fill="#2D2D2D"/>
<path fill-rule="evenodd" clip-rule="evenodd" d="M803.393 9.8973C801.838 10.1181 800.572 11.2929 800.234 12.8283C800.165 13.1413 800.159 14.2827 800.171 25.1127L800.184 37.0522L800.291 37.3976C800.695 38.6977 801.615 39.6043 802.945 40.0111L803.299 40.1194L814.931 40.1331C822.637 40.1423 826.718 40.1306 827.019 40.0986C828.531 39.9381 829.729 38.9863 830.23 37.5477L830.386 37.0993V25.042C830.386 11.439 830.426 12.8044 830.01 11.9464C829.54 10.9774 828.68 10.274 827.579 9.9587C827.283 9.87418 826.826 9.87059 815.474 9.86398C808.985 9.86021 803.549 9.87522 803.393 9.8973ZM815.794 14.0091C815.901 14.0685 816.054 14.2092 816.133 14.3218L816.276 14.5264L816.289 22.1319C816.304 30.633 816.329 29.9848 815.966 30.2957C815.536 30.6644 814.965 30.6457 814.569 30.25C814.45 30.1315 814.351 29.9773 814.32 29.8643C814.285 29.7329 814.273 27.3908 814.282 22.1055L814.294 14.535L814.424 14.339C814.727 13.8811 815.308 13.741 815.794 14.0091ZM810.595 14.4493C810.849 14.5391 811.046 14.7192 811.161 14.9666C811.245 15.1476 811.248 15.4425 811.249 22.1534L811.25 29.1514L811.152 29.3442C811.033 29.5785 810.856 29.7508 810.642 29.8415C810.451 29.9228 810.055 29.93 809.858 29.8559C809.661 29.7816 809.415 29.5371 809.311 29.3128C809.227 29.1316 809.223 28.844 809.223 22.1397C809.223 15.4409 809.227 15.1476 809.311 14.9666C809.534 14.4834 810.075 14.2658 810.595 14.4493ZM820.694 14.4493C820.948 14.5391 821.145 14.7192 821.26 14.9666C821.344 15.1476 821.347 15.4425 821.348 22.1534L821.349 29.1514L821.251 29.3442C821.131 29.5785 820.955 29.7508 820.741 29.8415C820.55 29.9228 820.154 29.93 819.957 29.8559C819.76 29.7816 819.514 29.5371 819.41 29.3128C819.326 29.1316 819.322 28.844 819.322 22.1397C819.322 15.4409 819.326 15.1476 819.41 14.9666C819.633 14.4834 820.174 14.2658 820.694 14.4493ZM805.611 16.4939C805.848 16.6014 806.086 16.8683 806.154 17.1012C806.19 17.226 806.201 18.7074 806.191 22.0723L806.177 26.8658L806.049 27.0602C805.748 27.5152 805.121 27.657 804.659 27.3748C804.489 27.2713 804.398 27.1706 804.301 26.9799L804.172 26.7239V21.9646C804.172 16.7564 804.158 17.0256 804.446 16.7185C804.726 16.4194 805.233 16.3218 805.611 16.4939ZM825.809 16.4939C826.046 16.6014 826.284 16.8683 826.352 17.1012C826.388 17.226 826.399 18.7074 826.389 22.0723L826.375 26.8658L826.246 27.0602C825.945 27.5152 825.319 27.657 824.857 27.3748C824.687 27.2713 824.596 27.1706 824.499 26.9799L824.37 26.7239V21.9646C824.37 16.7564 824.356 17.0256 824.643 16.7185C824.924 16.4194 825.431 16.3218 825.809 16.4939ZM889.234 19.5044C887.695 19.7468 886.39 20.8477 885.915 22.3049C885.636 23.1587 885.526 24.4436 885.614 25.805C885.678 26.7819 885.78 27.3432 885.999 27.9069C886.464 29.109 887.544 30.0736 888.786 30.3954C889.21 30.5054 890.214 30.5459 890.638 30.4701C891.556 30.306 892.309 29.9166 892.965 29.2656C893.384 28.8496 893.676 28.4026 893.759 28.0519C893.802 27.8673 893.708 27.4996 893.57 27.3196C893.379 27.068 893.121 26.9638 892.745 26.9851C892.334 27.0083 892.136 27.1554 891.896 27.6175C891.526 28.328 891.059 28.6645 890.287 28.7761C889.773 28.8503 889.42 28.793 888.944 28.5587C888.157 28.1705 887.751 27.4987 887.606 26.3445C887.534 25.7704 887.547 24.013 887.627 23.4819C887.79 22.4033 888.175 21.8236 889.005 21.4093C889.832 20.9963 890.935 21.1747 891.521 21.8162C891.655 21.9624 891.818 22.1906 891.885 22.3233C892.028 22.6108 892.157 22.7598 892.349 22.8595C892.912 23.1533 893.552 22.9029 893.721 22.3226C893.788 22.0936 893.788 22.0445 893.722 21.8189C893.52 21.1236 892.766 20.3367 891.887 19.9047C891.252 19.592 890.899 19.5121 890.084 19.496C889.694 19.4883 889.312 19.4921 889.234 19.5044ZM899.475 19.5413C898.943 19.6467 898.407 19.856 897.991 20.1214C896.934 20.795 896.321 21.7883 896.067 23.2413C895.962 23.8376 895.95 26.0315 896.047 26.6701C896.31 28.3959 897.181 29.5816 898.628 30.1838C899.226 30.4331 899.797 30.5286 900.536 30.5036C901.815 30.4604 902.732 30.076 903.558 29.2374C904.527 28.2525 904.887 26.9411 904.812 24.6644C904.762 23.1426 904.587 22.3121 904.159 21.5606C903.633 20.6374 902.697 19.9185 901.622 19.6124C901.163 19.4816 899.975 19.4423 899.475 19.5413ZM846.054 19.7262C845.769 19.8596 845.552 20.0737 845.407 20.3652L845.299 20.5824L845.286 24.9462C845.277 27.8783 845.289 29.3888 845.323 29.5501C845.495 30.3791 846.563 30.6027 847.044 29.9104L847.187 29.7058L847.199 26.3593C847.206 24.5187 847.228 23.0133 847.247 23.014C847.265 23.0147 848.245 24.5543 849.422 26.4352C850.797 28.6304 851.628 29.9137 851.745 30.0186C851.978 30.2295 852.371 30.3475 852.732 30.3148C853.207 30.2717 853.592 29.9959 853.8 29.5497L853.91 29.3128L853.911 24.8399C853.911 20.9087 853.903 20.3458 853.838 20.1922C853.54 19.4777 852.551 19.4025 852.142 20.0632L852 20.2917L851.977 23.558L851.953 26.8243L849.853 23.4919C848.698 21.659 847.667 20.072 847.561 19.9653C847.209 19.6094 846.533 19.5022 846.054 19.7262ZM866.014 19.7037C865.756 19.8208 865.586 20.0357 865.525 20.3238C865.463 20.613 865.456 29.2943 865.517 29.6128C865.561 29.8403 865.672 30.0119 865.869 30.1593C865.997 30.255 866.052 30.2568 869.169 30.2698C871.938 30.2814 872.364 30.2738 872.532 30.21C872.905 30.0685 873.151 29.6747 873.096 29.3079C873.043 28.9503 872.777 28.6597 872.43 28.5793C872.329 28.5557 871.157 28.5359 869.826 28.5352L867.407 28.5341L867.419 27.0594L867.432 25.5847L869.65 25.5611C871.833 25.5378 871.87 25.5358 872.035 25.4336C872.469 25.1635 872.548 24.4796 872.185 24.132C871.905 23.8632 871.895 23.8622 869.557 23.8622H867.408V22.6116V21.361L869.897 21.36C872.217 21.359 872.4 21.353 872.576 21.2718C872.804 21.1664 872.948 21.017 873.045 20.7838C873.131 20.5785 873.135 20.5013 873.069 20.2653C873.004 20.0306 872.81 19.8094 872.578 19.7037C872.399 19.6224 872.194 19.617 869.296 19.617C866.398 19.617 866.193 19.6224 866.014 19.7037ZM908.365 19.6773C907.873 19.816 907.441 20.2916 907.333 20.8144C907.299 20.9792 907.287 22.4378 907.295 25.3502C907.308 29.6367 907.309 29.6434 907.41 29.8319C907.534 30.0636 907.638 30.1607 907.863 30.2548C908.341 30.4546 908.886 30.2277 909.107 29.7375C909.13 29.6856 909.16 28.0619 909.172 26.1292L909.196 22.6154L910.419 25.9877C911.092 27.8424 911.69 29.4555 911.748 29.5723C912.014 30.1069 912.598 30.3318 913.113 30.0978C913.5 29.9223 913.497 29.9289 914.854 26.245C915.553 24.3505 916.142 22.7802 916.164 22.7555C916.186 22.7309 916.204 24.2691 916.204 26.1738C916.204 29.6064 916.205 29.6387 916.304 29.8437C916.444 30.1331 916.69 30.285 917.064 30.3132C917.314 30.3321 917.394 30.3177 917.573 30.2217C917.689 30.1591 917.849 30.0173 917.926 29.9068L918.068 29.7058L918.082 25.3564C918.095 21.4885 918.088 20.9758 918.021 20.7239C917.719 19.5927 916.337 19.248 915.554 20.1089C915.337 20.3475 915.296 20.4474 914.084 23.701C913.399 25.5416 912.815 27.0947 912.786 27.1522C912.742 27.2425 912.576 26.8278 911.584 24.132C910.951 22.4133 910.368 20.84 910.289 20.6359C910.035 19.9829 909.602 19.6616 908.937 19.6317C908.737 19.6227 908.487 19.6427 908.365 19.6773ZM840.838 19.7683C840.715 19.8304 840.569 19.9595 840.486 20.0791L840.344 20.2837V24.987V29.6903L840.485 29.8992C840.82 30.3933 841.507 30.466 841.941 30.0535C842.251 29.7586 842.23 30.0986 842.246 25.1599C842.257 21.9109 842.246 20.6077 842.207 20.426C842.074 19.8097 841.398 19.4851 840.838 19.7683ZM856.235 19.7023C856.058 19.7534 855.794 19.9941 855.719 20.1727C855.541 20.5973 855.713 21.1209 856.096 21.3257C856.285 21.4269 856.354 21.4325 857.557 21.4471L858.819 21.4623V25.5957V29.7292L858.939 29.934C859.105 30.2166 859.364 30.3471 859.763 30.3487C860.129 30.3501 860.385 30.2271 860.566 29.9626L860.683 29.7916L860.696 25.6269L860.708 21.4622L861.994 21.447C863.405 21.4304 863.446 21.4226 863.694 21.128C864.066 20.6859 863.936 20.0059 863.432 19.7622C863.227 19.6629 863.199 19.6622 859.784 19.6669C857.891 19.6695 856.294 19.6854 856.235 19.7023ZM876 19.7662C875.884 19.8258 875.725 19.9561 875.646 20.0559L875.501 20.2372L875.489 24.9525C875.477 29.5201 875.479 29.6734 875.567 29.8442C875.689 30.0814 875.841 30.2153 876.087 30.3022C876.448 30.4298 876.789 30.3694 877.062 30.129C877.392 29.8395 877.387 29.8742 877.413 27.9914L877.436 26.2925H878.633H879.83L880.65 28.133C881.525 30.0952 881.564 30.1611 881.938 30.2732C882.595 30.4699 883.17 30.0583 883.17 29.3921C883.17 29.1787 883.08 28.9439 882.468 27.5689L881.766 25.9906L882.163 25.7676C882.874 25.3686 883.389 24.6909 883.596 23.8806C883.709 23.4375 883.719 22.6702 883.618 22.1869C883.437 21.3198 882.786 20.4832 881.99 20.0938C881.181 19.698 881.141 19.6931 878.522 19.6744L876.209 19.6579L876 19.7662ZM900.985 21.2838C901.641 21.4596 902.244 21.9394 902.505 22.4936C902.808 23.1356 902.925 24.0472 902.881 25.4195C902.848 26.4501 902.749 26.9953 902.497 27.5175C901.813 28.9395 899.923 29.2466 898.767 28.1236C898.408 27.7755 898.147 27.1975 898.036 26.5049C897.952 25.9785 897.923 24.6393 897.984 24.0273C898.056 23.2903 898.142 22.9292 898.35 22.4974C898.631 21.9133 899.172 21.4703 899.829 21.2871C900.113 21.2077 900.694 21.206 900.985 21.2838ZM880.552 21.387C881.278 21.5761 881.747 22.139 881.791 22.8752C881.824 23.4182 881.721 23.7143 881.385 24.0485C881.169 24.2634 881.055 24.3349 880.798 24.4188C880.495 24.5172 880.397 24.5229 878.969 24.5229H877.46V22.9183V21.3138H878.866C879.983 21.3138 880.329 21.3288 880.552 21.387ZM805.38 31.0818C805.434 31.0822 805.77 31.2718 806.127 31.5033C808.044 32.7477 810.168 33.5214 812.666 33.8851C814.228 34.1125 816.408 34.1136 817.952 33.8878C820.707 33.4847 822.933 32.62 824.822 31.2182C825.264 30.8906 825.927 31.0351 826.23 31.5247C826.424 31.8376 826.451 32.2182 826.303 32.5245C825.999 33.1525 823.82 34.3749 821.692 35.1117C819.588 35.8399 816.587 36.2313 814.203 36.0885C810.792 35.8841 807.897 35.0346 805.494 33.5332C804.389 32.8422 804.172 32.6068 804.172 32.0974C804.172 31.7977 804.249 31.5881 804.428 31.4014C804.629 31.1924 805.006 31.0231 805.186 31.0612C805.238 31.0722 805.325 31.0815 805.38 31.0818Z" fill="#2D2D2D"/>
<path d="M49.6729 26.0027C49.6729 31.4999 45.3724 35.5507 40.0947 35.5507C34.8171 35.5507 30.5166 31.4999 30.5166 26.0027C30.5166 20.4668 34.8171 16.4547 40.0947 16.4547C45.3724 16.4547 49.6729 20.4668 49.6729 26.0027ZM45.48 26.0027C45.48 22.5675 42.9876 20.2171 40.0947 20.2171C37.2019 20.2171 34.7095 22.5675 34.7095 26.0027C34.7095 29.4035 37.2019 31.7883 40.0947 31.7883C42.9876 31.7883 45.48 29.3992 45.48 26.0027Z" fill="#2D2D2D"/>
<path d="M70.3358 26.0027C70.3358 31.4999 66.0354 35.5507 60.7577 35.5507C55.48 35.5507 51.1796 31.4999 51.1796 26.0027C51.1796 20.4711 55.48 16.4547 60.7577 16.4547C66.0354 16.4547 70.3358 20.4668 70.3358 26.0027ZM66.143 26.0027C66.143 22.5675 63.6505 20.2171 60.7577 20.2171C57.8649 20.2171 55.3724 22.5675 55.3724 26.0027C55.3724 29.4035 57.8649 31.7883 60.7577 31.7883C63.6505 31.7883 66.143 29.3992 66.143 26.0027Z" fill="#2D2D2D"/>
<path d="M90.1378 17.0316V34.1732C90.1378 41.2244 85.9794 44.1043 81.0633 44.1043C76.4357 44.1043 73.6505 41.0092 72.6001 38.478L76.2506 36.9584C76.9006 38.5124 78.4934 40.3463 81.059 40.3463C84.2058 40.3463 86.1559 38.4048 86.1559 34.75V33.3768H86.0095C85.0711 34.5348 83.2631 35.5464 80.9815 35.5464C76.2075 35.5464 71.8339 31.388 71.8339 26.0372C71.8339 20.6476 76.2075 16.4547 80.9815 16.4547C83.2588 16.4547 85.0668 17.4663 86.0095 18.5899H86.1559V17.0359H90.1378V17.0316ZM86.4529 26.0372C86.4529 22.6751 84.2101 20.2171 81.356 20.2171C78.4632 20.2171 76.0396 22.6751 76.0396 26.0372C76.0396 29.3648 78.4632 31.7883 81.356 31.7883C84.2101 31.7883 86.4529 29.3648 86.4529 26.0372Z" fill="#2D2D2D"/>
<path d="M96.7026 6.98428V34.9654H92.613V6.98428H96.7026Z" fill="#2D2D2D"/>
<path d="M112.639 29.1451L115.893 31.3147C114.843 32.8688 112.312 35.5463 107.938 35.5463C102.514 35.5463 98.4631 31.3535 98.4631 25.9983C98.4631 20.3203 102.548 16.4503 107.469 16.4503C112.424 16.4503 114.847 20.3935 115.639 22.5244L116.074 23.6092L103.31 28.8955C104.288 30.8111 105.807 31.7883 107.938 31.7883C110.073 31.7883 111.554 30.7379 112.639 29.1451ZM102.622 25.7099L111.154 22.1671C110.684 20.9747 109.272 20.1438 107.611 20.1438C105.48 20.1438 102.514 22.025 102.622 25.7099Z" fill="#2D2D2D"/>
<path d="M15.0366 23.5189V19.4681H28.6871C28.8205 20.1741 28.8894 21.0092 28.8894 21.9132C28.8894 24.9524 28.0586 28.7105 25.381 31.3881C22.7766 34.1001 19.449 35.5465 15.0409 35.5465C6.87043 35.5465 0 28.8913 0 20.7208C0 12.5503 6.87043 5.89514 15.0409 5.89514C19.5609 5.89514 22.7809 7.66871 25.2002 9.98038L22.3418 12.8388C20.607 11.2115 18.2566 9.94594 15.0366 9.94594C9.07018 9.94594 4.40379 14.7544 4.40379 20.7208C4.40379 26.6872 9.07018 31.4957 15.0366 31.4957C18.9066 31.4957 21.1107 29.9417 22.5226 28.5297C23.6677 27.3846 24.421 25.7488 24.7181 23.5146L15.0366 23.5189Z" fill="#2D2D2D"/>
<path fill-rule="evenodd" clip-rule="evenodd" d="M419.21 16.315C417.222 16.4705 415.793 17.1419 415.038 18.2753C414.577 18.9681 414.378 19.6726 414.349 20.7201C414.332 21.314 414.361 21.6753 414.462 22.1117C414.713 23.1931 415.437 24.075 416.836 25.0027C417.335 25.3336 417.686 25.5402 418.845 26.1858C420.298 26.9944 420.737 27.2866 421.21 27.7605C421.556 28.1076 421.709 28.3523 421.788 28.6862C421.882 29.0829 421.821 29.6358 421.644 30.0099C421.396 30.5302 420.934 30.7748 420.198 30.7739C419.349 30.7728 418.788 30.3968 418.608 29.7077C418.572 29.5694 418.563 29.345 418.563 28.6322V27.7316H416.392H414.222V28.4846C414.222 29.296 414.253 29.7288 414.342 30.1627C414.698 31.9002 415.928 33.0331 417.944 33.483C419.391 33.8057 421.257 33.7701 422.611 33.3941C423.461 33.158 424.141 32.7906 424.668 32.2827C425.356 31.6209 425.69 30.9033 425.838 29.7684C425.91 29.2158 425.91 28.0481 425.837 27.5829C425.641 26.322 424.913 25.376 423.361 24.3619C422.847 24.0261 422.389 23.7637 421.224 23.1369C419.789 22.3648 419.268 22.025 418.889 21.6157C418.586 21.2889 418.474 20.9893 418.474 20.5108C418.474 19.5923 419.027 19.048 419.959 19.0495C420.594 19.0505 421.058 19.2855 421.292 19.7261C421.452 20.0262 421.477 20.1799 421.477 20.884V21.517H423.499H425.521L425.521 20.9C425.52 19.698 425.418 19.1043 425.102 18.4725C424.51 17.2875 423.269 16.5838 421.371 16.3575C420.902 16.3016 419.687 16.2777 419.21 16.315ZM471.818 16.4036C469.64 16.5731 468.158 17.3415 467.467 18.6597C467.322 18.9363 467.175 19.3297 467.107 19.623C466.917 20.4444 466.922 21.5128 467.119 22.2657C467.385 23.2772 468.161 24.1803 469.528 25.0692C469.937 25.3349 470.367 25.5865 471.255 26.0804C471.687 26.3206 472.243 26.6381 472.49 26.786C473.503 27.3921 474.079 27.9309 474.289 28.4679C474.382 28.7053 474.402 29.2412 474.331 29.5671C474.198 30.1722 473.878 30.5143 473.305 30.6652C473.046 30.7331 472.495 30.7339 472.242 30.6667C471.817 30.5536 471.462 30.287 471.303 29.9612C471.159 29.6668 471.135 29.4626 471.134 28.5419L471.134 27.7018H468.99H466.846L466.861 28.6757C466.874 29.4824 466.887 29.7056 466.937 29.9766C467.259 31.7152 468.395 32.8518 470.297 33.34C471.802 33.726 473.79 33.7062 475.224 33.291C476.08 33.0432 476.693 32.6991 477.234 32.1632C478.085 31.3198 478.402 30.3456 478.401 28.579C478.4 27.8315 478.368 27.5262 478.239 27.0508C477.987 26.1237 477.159 25.1842 475.847 24.335C475.409 24.0519 474.89 23.7558 473.832 23.1862C472.347 22.3873 471.84 22.0571 471.461 21.6436C471.095 21.2438 470.97 20.7583 471.09 20.1943C471.239 19.4918 471.752 19.1097 472.546 19.1095C473.142 19.1093 473.615 19.356 473.851 19.7899C474.001 20.0669 474.024 20.2017 474.04 20.9L474.055 21.5468H476.043H478.032V20.864C478.032 20.4885 478.018 20.0436 477.999 19.8753C477.786 17.8905 476.423 16.7434 473.929 16.4481C473.447 16.3911 472.292 16.3667 471.818 16.4036ZM520.657 16.3916C520.28 16.4293 519.658 16.5326 519.341 16.6101C518.394 16.8419 517.686 17.2177 517.101 17.799C516.424 18.4714 516.091 19.1909 515.911 20.3722C515.859 20.7069 515.836 28.483 515.885 29.0994C515.929 29.6613 515.982 29.963 516.107 30.3631C516.734 32.3668 518.828 33.4589 521.876 33.3716C524.967 33.2832 526.841 32.0126 527.214 29.7535C527.314 29.1507 527.333 28.5966 527.333 26.2319V23.9255H524.463H521.594V25.1149V26.3043H522.426H523.259L523.258 27.7093C523.258 29.2435 523.246 29.3825 523.09 29.6684C522.822 30.1606 522.337 30.4303 521.668 30.459C520.775 30.4972 520.139 30.0948 519.937 29.3639C519.888 29.1862 519.884 28.896 519.884 24.9514C519.884 20.9734 519.887 20.7157 519.938 20.4985C520.126 19.6997 520.687 19.2779 521.564 19.2779C522.099 19.2779 522.465 19.4109 522.772 19.7169C523.132 20.0754 523.199 20.3095 523.221 21.2866L523.237 21.9928H525.27H527.303V21.4767C527.303 19.6896 526.971 18.655 526.129 17.8148C525.398 17.0851 524.484 16.6801 523.066 16.4564C522.747 16.4061 522.513 16.3941 521.728 16.3876C521.204 16.3833 520.723 16.385 520.657 16.3916ZM482.178 16.8291C482.17 16.8513 482.168 19.6915 482.174 23.1405C482.183 28.7283 482.19 29.4461 482.233 29.7279C482.399 30.8198 482.721 31.5073 483.367 32.1477C484.23 33.0031 485.421 33.4278 487.257 33.5343C488.495 33.6062 489.76 33.461 490.69 33.1402C492.407 32.5483 493.343 31.3143 493.493 29.4445C493.513 29.1957 493.524 26.9062 493.524 22.9251V16.7892H491.488H489.452L489.444 23.1004L489.436 29.4116L489.369 29.607C489.201 30.103 488.87 30.4215 488.364 30.5752C488.096 30.6568 487.537 30.6485 487.281 30.5591C486.825 30.3998 486.54 30.1244 486.348 29.6568L486.284 29.5008L486.269 23.1524L486.254 16.8041L484.224 16.7964C482.536 16.7901 482.191 16.7956 482.178 16.8291ZM431.515 16.9007C431.463 17.1474 428.554 32.9799 428.554 33.0137C428.554 33.0474 428.915 33.0541 430.723 33.0541H432.892L432.909 32.9575C432.944 32.7584 435.095 18.3719 435.095 18.3395C435.095 18.3209 435.122 18.3057 435.155 18.3057C435.188 18.3057 435.214 18.3224 435.214 18.3429C435.214 18.3793 437.308 32.7657 437.341 32.9575L437.358 33.0541H439.528H441.698L441.682 32.9872C441.663 32.9024 438.723 16.858 438.723 16.8356C438.723 16.8264 437.105 16.8189 435.128 16.8189H431.532L431.515 16.9007ZM445.283 17.0344C445.269 17.2248 444.934 32.555 444.937 32.9129L444.938 33.0541H446.96H448.982L448.982 31.8127C448.982 28.7305 449.073 18.4695 449.1 18.4425C449.116 18.4267 449.137 18.4218 449.147 18.4317C449.157 18.4415 449.766 21.7055 450.501 25.6849C451.235 29.6644 451.843 32.9504 451.852 32.9872L451.867 33.0541H453.914H455.961L455.992 32.898C456.009 32.8121 456.615 29.5305 457.338 25.6055C458.062 21.6806 458.666 18.4565 458.68 18.441C458.696 18.4231 458.714 18.4231 458.731 18.441C458.75 18.4621 458.859 31.1311 458.854 32.7791L458.854 33.0541H460.877H462.9L462.882 32.5263C462.872 32.236 462.799 28.8674 462.719 25.0406C462.638 21.2137 462.564 17.7983 462.553 17.4508L462.534 16.8189L459.244 16.819L455.954 16.819L454.959 23.0223C454.02 28.8712 453.942 29.3185 453.875 29.2443C453.87 29.2382 453.418 26.4433 452.871 23.0335L451.877 16.8338L448.588 16.8262L445.3 16.8187L445.283 17.0344ZM498.044 24.8622V32.9054H500.021H501.999L501.998 32.5412C501.998 32.3409 501.951 29.4339 501.895 26.0813C501.838 22.7287 501.791 19.9154 501.791 19.8296C501.79 19.5843 501.861 19.6237 501.951 19.9188C501.992 20.0537 502.401 21.4085 502.861 22.9294C503.32 24.4504 504.186 27.3172 504.785 29.3002L505.874 32.9057L508.746 32.8981L511.618 32.8906L511.625 24.8547L511.633 16.8189H509.625H507.617L507.634 17.4211C507.643 17.7522 507.69 20.3916 507.738 23.2862C507.785 26.1809 507.831 28.7801 507.839 29.0622C507.852 29.5351 507.849 29.5751 507.801 29.5751C507.758 29.5751 507.446 28.5309 505.91 23.2491C504.899 19.7697 504.065 16.8996 504.057 16.871C504.044 16.8218 503.875 16.8189 501.044 16.8189H498.044V24.8622Z" fill="#2D2D2D"/>
<path fill-rule="evenodd" clip-rule="evenodd" d="M1047.44 5.7911C1044.84 7.28772 1042.68 8.52176 1042.65 8.53338C1042.62 8.54501 1045.6 13.7777 1049.27 20.1617L1055.95 31.7688H1062.37H1068.79L1068.64 31.4928C1068.28 30.8525 1052.32 3.27894 1052.25 3.1793C1052.19 3.08233 1051.65 3.37733 1047.44 5.7911ZM1036.44 15.8974C1033.81 17.4107 1031.67 18.68 1031.68 18.7182C1031.69 18.7564 1033.39 21.7157 1035.46 25.2945L1039.23 31.8013L1039.23 33.149L1039.23 34.4966H1040.59H1041.96V33.1331V31.7696L1046.96 31.7529L1051.96 31.7363L1046.6 22.4486C1043.65 17.3403 1041.23 13.1576 1041.22 13.1535C1041.21 13.1494 1039.06 14.3843 1036.44 15.8974ZM1025.2 25.7292C1022.62 27.2283 1020.48 28.477 1020.45 28.5042C1020.42 28.5315 1020.82 29.2771 1021.32 30.1613L1022.24 31.7688H1028.63C1033.72 31.7688 1035.02 31.7522 1034.99 31.6876C1034.91 31.4878 1030.01 23.0344 1029.96 23.0199C1029.93 23.0111 1027.79 24.2302 1025.2 25.7292ZM1035.14 34.0762V36.3835L1034.67 36.126C1033.01 35.2183 1031.02 35.1937 1029.26 36.0593C1028.11 36.6244 1027.29 37.4413 1026.73 38.556C1026.26 39.4944 1026.14 40.0135 1026.15 41.089C1026.16 42.1752 1026.28 42.7317 1026.72 43.622C1027.69 45.5764 1029.7 46.836 1031.86 46.836C1032.79 46.836 1033.7 46.6072 1034.6 46.1457L1035.14 45.8715V46.2243V46.5772H1036.5H1037.87V39.173V31.7688H1036.5H1035.14V34.0762ZM1052.02 34.0664V36.3639L1051.55 36.1128C1049.55 35.0436 1047.07 35.2411 1045.27 36.6136C1044.21 37.4206 1043.43 38.6459 1043.15 39.9508C1043.05 40.4555 1043.03 41.5297 1043.13 42.0675C1043.67 45.1286 1046.49 47.1891 1049.58 46.7772C1050.23 46.6901 1051.25 46.3472 1051.71 46.0609L1052.02 45.8681V46.2226V46.5772H1053.39H1054.75V39.173V31.7688H1053.39H1052.02V34.0664ZM1018.4 35.4702C1016.21 35.7796 1014.38 37.3031 1013.72 39.3678C1012.87 42.0097 1014.09 44.941 1016.57 46.1927C1018.26 47.0438 1020.13 47.0453 1021.84 46.197L1022.47 45.8825V46.2298V46.5772H1023.8H1025.14V41.0565V35.5358H1023.8H1022.47V35.9527V36.3696L1021.86 36.0556C1021.49 35.8671 1021.01 35.6881 1020.67 35.6075C1020 35.4516 1018.98 35.3892 1018.4 35.4702ZM1060.58 35.4724C1059.16 35.6967 1057.74 36.5021 1056.9 37.566C1056.47 38.1157 1056.1 38.8276 1055.88 39.5302C1055.72 40.056 1055.7 40.2094 1055.7 41.0565C1055.71 42.1463 1055.82 42.6958 1056.24 43.557C1056.98 45.1185 1058.34 46.2242 1060.08 46.6879C1060.68 46.8476 1062.15 46.8442 1062.76 46.6817C1063.32 46.5323 1063.87 46.3113 1064.29 46.0613L1064.62 45.8661V46.2216V46.5772H1065.99H1067.35V41.0565V35.5358H1065.99H1064.62V35.9659C1064.62 36.3021 1064.61 36.3816 1064.54 36.3297C1064.31 36.1427 1063.36 35.7285 1062.88 35.6084C1062.25 35.4517 1061.13 35.3853 1060.58 35.4724ZM1072.58 35.4485C1070.6 35.6832 1069.27 36.6023 1068.84 38.0264C1068.72 38.394 1068.7 38.5879 1068.73 39.1451C1068.76 39.7623 1068.78 39.8605 1069 40.3121C1069.6 41.5104 1070.46 41.9386 1073.17 42.3869C1074.5 42.6066 1074.95 42.7514 1075.21 43.044C1075.62 43.5098 1075.37 44.1942 1074.66 44.5592C1074.37 44.7099 1074.26 44.7261 1073.59 44.7261C1073 44.7261 1072.76 44.6981 1072.49 44.5976C1071.86 44.3634 1071.44 43.8739 1071.34 43.2707L1071.3 43.005H1069.88H1068.46V43.2187C1068.46 43.5644 1068.64 44.1623 1068.89 44.6358C1069.67 46.1265 1071.56 46.9407 1073.95 46.8131C1076.62 46.6702 1078.19 45.4658 1078.37 43.4147C1078.52 41.6931 1077.39 40.4386 1075.27 39.9835C1074.86 39.8966 1074.12 39.7531 1073.62 39.6645C1072.48 39.4634 1072.09 39.3368 1071.8 39.0816C1071.51 38.8284 1071.44 38.5159 1071.61 38.1659C1071.7 37.9769 1071.81 37.8824 1072.09 37.7514C1072.42 37.5947 1072.52 37.5817 1073.33 37.5817C1074.17 37.5817 1074.22 37.5895 1074.51 37.7598C1074.87 37.9724 1075.08 38.2829 1075.14 38.7023L1075.18 39.0106L1076.56 39.0281C1078.14 39.0481 1078.01 39.1113 1077.84 38.3996C1077.64 37.5488 1076.96 36.6219 1076.19 36.1563C1075.29 35.6108 1073.75 35.3092 1072.58 35.4485ZM1039.23 41.0565V46.5772H1040.59H1041.96V41.0565V35.5358H1040.59H1039.23V41.0565ZM1020.07 38.0436C1021.32 38.4147 1022.22 39.426 1022.42 40.6847C1022.57 41.6505 1022.23 42.5903 1021.47 43.3182C1019.99 44.7381 1017.68 44.4613 1016.56 42.7308C1016.21 42.2004 1016.09 41.6647 1016.12 40.9141C1016.14 40.3779 1016.17 40.2453 1016.38 39.8053C1017.05 38.3883 1018.66 37.6235 1020.07 38.0436ZM1032.74 38.0425C1033.32 38.2143 1033.82 38.5169 1034.23 38.9534C1035.45 40.2572 1035.41 42.0981 1034.14 43.3182C1032.9 44.5048 1031.04 44.5358 1029.79 43.3906C1029.19 42.8424 1028.88 42.2484 1028.77 41.4573C1028.58 39.9676 1029.63 38.4431 1031.12 38.0418C1031.59 37.9154 1032.31 37.9157 1032.74 38.0425ZM1050.02 38.161C1051.22 38.6507 1052.02 39.8307 1052.02 41.1215C1052.02 42.6418 1050.92 43.9206 1049.37 44.1856C1048.36 44.3592 1047.38 44.0345 1046.64 43.2795C1045.94 42.5722 1045.69 41.9086 1045.74 40.908C1045.76 40.3814 1045.79 40.2437 1045.99 39.8202C1046.4 38.9757 1047.05 38.3933 1047.93 38.0826C1048.52 37.8754 1049.4 37.9083 1050.02 38.161ZM1062.29 38.0436C1062.87 38.2152 1063.27 38.4522 1063.68 38.8729C1064.7 39.902 1064.91 41.283 1064.25 42.581C1064.01 43.0602 1063.35 43.6825 1062.84 43.9238C1060.74 44.9068 1058.32 43.3604 1058.33 41.0371C1058.33 39.7121 1059.37 38.4029 1060.73 38.0285C1061.14 37.9139 1061.88 37.921 1062.29 38.0436Z" fill="#2D2D2D"/>
</svg>
