<svg width="270" height="225" viewBox="0 0 270 225" fill="none" xmlns="http://www.w3.org/2000/svg">
<rect width="123.75" height="225" rx="24" fill="#F0FFF5"/>
<g clip-path="url(#clip0_354_2858)">
<path d="M84.0041 177.823C85.0758 177.502 86.0712 176.967 86.9296 176.25C87.788 175.532 88.4916 174.647 88.9974 173.649C89.5033 172.651 89.8009 171.56 89.8721 170.443C89.9432 169.326 89.7865 168.206 89.4115 167.151C88.6204 164.917 86.8275 163.27 85.7588 161.188C84.7118 159.145 84.4673 156.784 85.0734 154.57C85.6795 152.356 87.0923 150.45 89.0334 149.226C89.2564 149.085 89.4851 148.953 89.7196 148.832C89.941 148.717 89.7452 148.382 89.5239 148.497C87.5211 149.537 85.9501 151.253 85.0886 153.34C84.2271 155.427 84.1303 157.751 84.8155 159.903C85.1935 161.02 85.7401 162.072 86.4365 163.023C87.1054 163.98 87.837 164.898 88.4149 165.916C89.0085 166.951 89.3652 168.104 89.4592 169.293C89.5531 170.483 89.3821 171.678 88.9583 172.793C88.5662 173.777 87.9817 174.673 87.2391 175.427C86.4965 176.182 85.6109 176.781 84.634 177.188C84.3943 177.288 84.1493 177.373 83.901 177.449C83.853 177.464 83.8127 177.497 83.7886 177.541C83.7645 177.585 83.7586 177.637 83.7719 177.685C83.7853 177.734 83.817 177.775 83.8603 177.801C83.9036 177.827 83.9551 177.834 84.004 177.823L84.0041 177.823Z" fill="#EDF1F7"/>
<path d="M89.6324 152.454C91.7514 152.454 93.4692 150.735 93.4692 148.615C93.4692 146.494 91.7514 144.775 89.6324 144.775C87.5134 144.775 85.7957 146.494 85.7957 148.615C85.7957 150.735 87.5134 152.454 89.6324 152.454Z" fill="#EDF1F7"/>
<path d="M87.4742 162.053C88.7986 162.053 89.8722 160.978 89.8722 159.653C89.8722 158.328 88.7986 157.253 87.4742 157.253C86.1498 157.253 85.0762 158.328 85.0762 159.653C85.0762 160.978 86.1498 162.053 87.4742 162.053Z" fill="#EDF1F7"/>
<path d="M207.247 117.591C206.175 117.271 205.18 116.736 204.321 116.018C203.463 115.301 202.759 114.416 202.254 113.417C201.748 112.419 201.45 111.328 201.379 110.211C201.308 109.094 201.464 107.974 201.84 106.92C202.631 104.685 204.423 103.038 205.492 100.956C206.539 98.9138 206.784 96.5529 206.178 94.3388C205.571 92.1248 204.159 90.2182 202.218 88.9947C201.995 88.8534 201.766 88.722 201.531 88.6006C201.31 88.4852 201.506 88.1502 201.727 88.2655C203.73 89.3059 205.301 91.0212 206.162 93.1083C207.024 95.1954 207.121 97.52 206.435 99.6716C206.058 100.788 205.511 101.84 204.814 102.791C204.146 103.749 203.414 104.667 202.836 105.684C202.243 106.719 201.886 107.873 201.792 109.062C201.698 110.251 201.869 111.447 202.293 112.562C202.685 113.546 203.269 114.441 204.012 115.196C204.754 115.95 205.64 116.549 206.617 116.957C206.857 117.056 207.102 117.142 207.35 117.217C207.398 117.232 207.438 117.265 207.462 117.31C207.486 117.354 207.492 117.406 207.479 117.454C207.466 117.503 207.434 117.544 207.391 117.57C207.347 117.595 207.296 117.603 207.247 117.591H207.247Z" fill="#EDF1F7"/>
<path d="M201.619 92.2228C203.738 92.2228 205.455 90.5039 205.455 88.3834C205.455 86.2629 203.738 84.5439 201.619 84.5439C199.5 84.5439 197.782 86.2629 197.782 88.3834C197.782 90.5039 199.5 92.2228 201.619 92.2228Z" fill="#EDF1F7"/>
<path d="M203.777 101.821C205.101 101.821 206.175 100.747 206.175 99.4216C206.175 98.0963 205.101 97.022 203.777 97.022C202.452 97.022 201.379 98.0963 201.379 99.4216C201.379 100.747 202.452 101.821 203.777 101.821Z" fill="#EDF1F7"/>
<path d="M172.433 78.056H171.718V58.4543C171.718 56.9645 171.425 55.4892 170.855 54.1128C170.285 52.7364 169.45 51.4857 168.397 50.4322C167.345 49.3788 166.095 48.5431 164.719 47.973C163.344 47.4028 161.87 47.1094 160.381 47.1094H118.881C115.874 47.1094 112.99 48.3046 110.864 50.4322C108.738 52.5598 107.544 55.4454 107.544 58.4543V165.991C107.544 167.48 107.837 168.956 108.407 170.332C108.977 171.709 109.812 172.959 110.864 174.013C111.917 175.066 113.167 175.902 114.542 176.472C115.918 177.042 117.392 177.336 118.881 177.336H160.381C163.388 177.336 166.271 176.14 168.397 174.013C170.523 171.885 171.718 168.999 171.718 165.991V92.0088H172.433V78.056Z" fill="#C5CEE0"/>
<path d="M160.838 50.061H155.421C155.67 50.6722 155.765 51.3353 155.698 51.992C155.631 52.6486 155.403 53.2786 155.035 53.8264C154.667 54.3743 154.17 54.8232 153.588 55.1336C153.006 55.444 152.357 55.6063 151.697 55.6064H127.922C127.263 55.6063 126.613 55.444 126.031 55.1336C125.449 54.8232 124.952 54.3743 124.584 53.8264C124.216 53.2786 123.988 52.6486 123.921 51.992C123.854 51.3353 123.949 50.6722 124.198 50.061H119.138C118.027 50.061 116.926 50.2802 115.898 50.7059C114.871 51.1317 113.938 51.7558 113.152 52.5425C112.366 53.3292 111.742 54.2632 111.317 55.2911C110.891 56.319 110.672 57.4207 110.672 58.5333V165.912C110.672 167.024 110.891 168.126 111.317 169.154C111.742 170.182 112.366 171.116 113.152 171.903C113.938 172.689 114.871 173.313 115.898 173.739C116.926 174.165 118.027 174.384 119.138 174.384H160.838C161.95 174.384 163.051 174.165 164.078 173.739C165.105 173.313 166.039 172.689 166.825 171.903C167.611 171.116 168.235 170.182 168.66 169.154C169.086 168.126 169.305 167.024 169.305 165.912V58.5333C169.305 57.4207 169.086 56.319 168.66 55.2911C168.235 54.2632 167.611 53.3292 166.825 52.5425C166.039 51.7558 165.105 51.1317 164.078 50.706C163.051 50.2802 161.95 50.061 160.838 50.061Z" fill="white"/>
<path d="M156.625 140.562C149.388 140.432 149.39 129.671 156.625 129.542C163.861 129.672 163.86 140.433 156.625 140.562Z" fill="white"/>
<path d="M156.625 140.562C149.388 140.432 149.39 129.671 156.625 129.542C163.861 129.672 163.86 140.433 156.625 140.562ZM156.625 129.876C149.827 129.998 149.828 140.107 156.625 140.228C163.423 140.106 163.422 129.997 156.625 129.876Z" fill="#E4E9F2"/>
<path d="M157.801 132.228C156.443 132.267 153.804 131.781 153.802 133.876C153.841 135.234 153.356 137.876 155.449 137.877C156.806 137.838 159.446 138.324 159.447 136.229C159.408 134.871 159.894 132.229 157.801 132.228Z" fill="#C5CEE0"/>
<path d="M158.154 133.876C158.062 133.873 157.975 133.834 157.911 133.768C157.847 133.703 157.812 133.614 157.812 133.522C157.812 133.431 157.848 133.343 157.912 133.277C157.976 133.211 158.064 133.173 158.155 133.171C158.247 133.174 158.334 133.212 158.398 133.278C158.462 133.344 158.497 133.432 158.497 133.524C158.497 133.616 158.461 133.704 158.397 133.77C158.333 133.835 158.245 133.873 158.154 133.876Z" fill="white"/>
<path d="M156.625 134.111C157.846 134.093 157.846 136.012 156.625 135.994C155.404 136.011 155.404 134.093 156.625 134.111ZM156.625 133.64C154.794 133.613 154.794 136.491 156.625 136.464C158.456 136.491 158.456 133.613 156.625 133.64Z" fill="white"/>
<path d="M123.308 140.562C116.071 140.432 116.072 129.671 123.308 129.542C130.544 129.672 130.543 140.433 123.308 140.562Z" fill="white"/>
<path d="M123.308 140.562C116.071 140.432 116.072 129.671 123.308 129.542C130.544 129.672 130.543 140.433 123.308 140.562ZM123.308 129.876C116.51 129.998 116.511 140.107 123.308 140.228C130.105 140.106 130.104 129.997 123.308 129.876Z" fill="#E4E9F2"/>
<path d="M126.297 133.662C126.126 133.862 125.94 134.048 125.74 134.22C125.493 136.909 123.815 137.52 122.467 137.52C121.499 137.52 120.7 137.205 120.727 137.118C122.164 137.152 122.287 136.561 122.287 136.561C121.452 136.438 121.284 135.892 121.284 135.892C121.359 135.932 121.446 135.942 121.528 135.922C121.61 135.901 121.682 135.851 121.729 135.781C121.484 135.725 121.269 135.579 121.125 135.373C120.981 135.167 120.919 134.915 120.951 134.665C121.111 134.782 121.299 134.855 121.496 134.878C121.396 134.755 120.552 133.744 121.06 133.22C121.327 133.599 121.683 133.906 122.097 134.113C122.512 134.321 122.971 134.422 123.434 134.409C123.399 134.238 123.403 134.062 123.444 133.893C123.485 133.723 123.564 133.565 123.674 133.43C123.783 133.295 123.922 133.185 124.079 133.11C124.235 133.034 124.407 132.994 124.581 132.993C125.361 132.993 125.529 133.44 125.529 133.44L126.086 133.105C126.075 133.105 126.019 133.662 125.74 133.774L126.297 133.662Z" fill="#C5CEE0"/>
<path d="M139.966 140.562C132.73 140.432 132.731 129.671 139.966 129.542C147.203 129.672 147.202 140.433 139.966 140.562Z" fill="white"/>
<path d="M139.966 140.562C132.73 140.432 132.731 129.671 139.966 129.542C147.203 129.672 147.201 140.433 139.966 140.562ZM139.966 129.876C133.168 129.998 133.169 140.107 139.966 140.228C146.764 140.106 146.763 129.997 139.966 129.876Z" fill="#E4E9F2"/>
<path d="M143 135.07C143 135.799 142.74 136.504 142.267 137.059C141.794 137.613 141.139 137.981 140.42 138.095V135.956H141.132L141.268 135.07H140.42C140.391 134.333 140.362 133.919 141.304 134.018V133.265C139.894 132.955 139.306 133.67 139.464 135.07H138.687V135.956H139.464V138.094C135.808 137.531 136.238 131.995 139.941 132.01C140.752 132.01 141.53 132.332 142.104 132.906C142.678 133.48 143 134.258 143 135.07V135.07Z" fill="#C5CEE0"/>
<path d="M161.072 108.31H118.904C118.644 108.31 118.395 108.206 118.211 108.023C118.027 107.839 117.924 107.589 117.924 107.329V81.2255C117.924 80.9653 118.027 80.7159 118.211 80.5319C118.395 80.3479 118.644 80.2444 118.904 80.2441H161.072C161.332 80.2444 161.582 80.3479 161.765 80.5319C161.949 80.7159 162.053 80.9653 162.053 81.2255V107.329C162.053 107.589 161.949 107.839 161.765 108.023C161.582 108.206 161.332 108.31 161.072 108.31Z" fill="white"/>
<path d="M161.072 108.31H118.904C118.644 108.31 118.395 108.206 118.211 108.023C118.027 107.839 117.924 107.589 117.924 107.329V81.2255C117.924 80.9653 118.027 80.7159 118.211 80.5319C118.395 80.3479 118.644 80.2444 118.904 80.2441H161.072C161.332 80.2444 161.582 80.3479 161.765 80.5319C161.949 80.7159 162.053 80.9653 162.053 81.2255V107.329C162.053 107.589 161.949 107.839 161.765 108.023C161.582 108.206 161.332 108.31 161.072 108.31ZM118.904 80.6367C118.748 80.6369 118.599 80.6989 118.488 80.8093C118.378 80.9197 118.316 81.0694 118.316 81.2255V107.329C118.316 107.485 118.378 107.635 118.488 107.745C118.599 107.855 118.748 107.918 118.904 107.918H161.072C161.228 107.918 161.378 107.855 161.488 107.745C161.599 107.635 161.661 107.485 161.661 107.329V81.2255C161.661 81.0694 161.599 80.9197 161.488 80.8093C161.378 80.6989 161.228 80.6369 161.072 80.6367H118.904Z" fill="#C5CEE0"/>
<path d="M152.737 92.1184H127.24C127.006 92.1177 126.783 92.0243 126.618 91.8587C126.453 91.6932 126.36 91.469 126.36 91.2352C126.36 91.0015 126.453 90.7773 126.618 90.6118C126.783 90.4462 127.006 90.3528 127.24 90.3521H152.737C152.853 90.3517 152.968 90.3742 153.075 90.4184C153.183 90.4627 153.281 90.5277 153.363 90.6097C153.445 90.6918 153.51 90.7892 153.555 90.8966C153.599 91.0039 153.622 91.119 153.622 91.2352C153.622 91.3515 153.599 91.4666 153.555 91.5739C153.51 91.6812 153.445 91.7787 153.363 91.8608C153.281 91.9428 153.183 92.0078 153.075 92.052C152.968 92.0963 152.853 92.1188 152.737 92.1184Z" fill="#00D68F"/>
<path d="M152.737 98.2024H127.24C127.006 98.2016 126.783 98.1083 126.618 97.9427C126.453 97.7772 126.36 97.553 126.36 97.3192C126.36 97.0855 126.453 96.8613 126.618 96.6957C126.783 96.5302 127.006 96.4368 127.24 96.436H152.737C152.853 96.4357 152.968 96.4582 153.075 96.5024C153.183 96.5466 153.281 96.6116 153.363 96.6937C153.445 96.7757 153.51 96.8732 153.555 96.9806C153.599 97.0879 153.622 97.203 153.622 97.3192C153.622 97.4355 153.599 97.5505 153.555 97.6579C153.51 97.7652 153.445 97.8627 153.363 97.9448C153.281 98.0268 153.183 98.0918 153.075 98.136C152.968 98.1802 152.853 98.2028 152.737 98.2024Z" fill="#00D68F"/>
<path d="M205.673 130.614C205.632 130.765 205.604 130.918 205.587 131.072L193.255 137.554L190.391 135.749L187.105 139.718L191.864 143.405C192.248 143.703 192.719 143.868 193.205 143.876C193.691 143.883 194.167 143.733 194.56 143.447L207.382 134.126C207.935 134.356 208.544 134.412 209.13 134.287C209.715 134.162 210.249 133.861 210.66 133.425C211.07 132.989 211.339 132.439 211.429 131.846C211.519 131.254 211.427 130.648 211.165 130.11C210.903 129.571 210.483 129.125 209.961 128.831C209.439 128.537 208.841 128.409 208.244 128.464C207.648 128.518 207.083 128.754 206.623 129.138C206.164 129.522 205.832 130.037 205.673 130.614Z" fill="#FFB6B6"/>
<path d="M220.541 174.531L223.014 172.939L218.057 162.638L214.408 164.987L220.541 174.531Z" fill="#FFB6B6"/>
<path d="M219.391 174.129L224.261 170.995L224.261 170.995C225.084 170.465 226.084 170.285 227.04 170.492C227.996 170.7 228.831 171.28 229.36 172.103L229.425 172.204L221.452 177.335L219.391 174.129Z" fill="#2E3A59"/>
<path d="M184.916 156.837L203.897 144.676C203.897 144.676 207.384 144.339 209.477 148.467L222.119 166.638L216.725 170.29L202.698 155.714L193.072 165.24C193.072 165.24 207.254 162.913 206.774 172.272C206.394 179.699 186.984 177.151 178.987 175.783C177.469 175.535 176.023 174.955 174.753 174.086C173.484 173.216 172.421 172.077 171.64 170.75C170.782 169.261 170.321 167.571 171.042 165.974C172.963 161.713 184.916 156.837 184.916 156.837Z" fill="#2E3A59"/>
<path d="M175.506 167L170.036 165.892L171.595 139.026L177.889 131.312L181.639 130.648C182.757 130.445 183.91 130.669 184.87 131.277C185.83 131.885 186.527 132.832 186.822 133.93L188.475 139.972C191.279 144.724 187.351 150.233 186.988 150.723L187.192 159.055L175.506 167Z" fill="#00D68F"/>
<path d="M180.599 132.365L180.946 131.136C180.946 131.136 184.713 128.358 190.468 135.557L187.71 140.476L181.715 140.236L180.599 132.365Z" fill="#00D68F"/>
<path d="M189.263 122.803C190.33 127.181 186.125 127.506 181.135 128.724C176.146 129.942 172.263 131.591 171.196 127.214C170.129 122.837 170.214 114.596 177.272 112.873C184.573 111.091 188.196 118.426 189.263 122.803Z" fill="#2E3A59"/>
<path d="M179.621 128.902C183.076 128.902 185.878 126.099 185.878 122.641C185.878 119.183 183.076 116.379 179.621 116.379C176.165 116.379 173.364 119.183 173.364 122.641C173.364 126.099 176.165 128.902 179.621 128.902Z" fill="#FFB6B6"/>
<path d="M172.452 123.758L174.856 123.171L175.192 119.941L176.129 122.861L177.278 122.58L177.474 120.696L178.02 122.399L186.559 120.315C186.353 119.469 185.982 118.672 185.468 117.97C184.955 117.268 184.308 116.674 183.564 116.221C182.821 115.769 181.996 115.468 181.136 115.335C180.277 115.202 179.399 115.24 178.554 115.446L177.317 115.748C176.472 115.954 175.676 116.325 174.974 116.84C174.272 117.354 173.678 118.001 173.227 118.745C172.775 119.489 172.474 120.314 172.341 121.175C172.208 122.035 172.246 122.913 172.452 123.758Z" fill="#2E3A59"/>
<path d="M250.538 131.389H208.37C208.11 131.389 207.861 131.286 207.677 131.102C207.493 130.918 207.39 130.668 207.389 130.408V104.305C207.39 104.044 207.493 103.795 207.677 103.611C207.861 103.427 208.11 103.324 208.37 103.323H250.538C250.798 103.324 251.047 103.427 251.231 103.611C251.415 103.795 251.519 104.044 251.519 104.305V130.408C251.519 130.668 251.415 130.918 251.231 131.102C251.047 131.286 250.798 131.389 250.538 131.389Z" fill="white"/>
<path d="M250.538 131.389H208.37C208.11 131.389 207.861 131.286 207.677 131.102C207.493 130.918 207.39 130.668 207.389 130.408V104.305C207.39 104.044 207.493 103.795 207.677 103.611C207.861 103.427 208.11 103.324 208.37 103.323H250.538C250.798 103.324 251.047 103.427 251.231 103.611C251.415 103.795 251.519 104.044 251.519 104.305V130.408C251.519 130.668 251.415 130.918 251.231 131.102C251.047 131.286 250.798 131.389 250.538 131.389ZM208.37 103.716C208.214 103.716 208.065 103.778 207.954 103.888C207.844 103.999 207.782 104.148 207.782 104.305V130.408C207.782 130.564 207.844 130.714 207.954 130.824C208.065 130.935 208.214 130.997 208.37 130.997H250.538C250.694 130.997 250.844 130.935 250.954 130.824C251.064 130.714 251.126 130.564 251.127 130.408V104.305C251.126 104.148 251.064 103.999 250.954 103.888C250.844 103.778 250.694 103.716 250.538 103.716H208.37Z" fill="#C5CEE0"/>
<path d="M242.203 115.197H216.706C216.59 115.197 216.475 115.175 216.367 115.13C216.26 115.086 216.163 115.021 216.081 114.939C215.999 114.857 215.933 114.759 215.889 114.652C215.845 114.545 215.822 114.43 215.822 114.314C215.822 114.198 215.845 114.083 215.889 113.976C215.933 113.868 215.999 113.771 216.081 113.689C216.163 113.607 216.26 113.542 216.367 113.497C216.475 113.453 216.59 113.43 216.706 113.431H242.203C242.437 113.431 242.661 113.524 242.827 113.689C242.992 113.855 243.085 114.08 243.085 114.314C243.085 114.548 242.992 114.773 242.827 114.938C242.661 115.104 242.437 115.197 242.203 115.197Z" fill="#00D68F"/>
<path d="M242.203 121.282H216.706C216.589 121.282 216.474 121.259 216.367 121.215C216.259 121.171 216.162 121.106 216.079 121.024C215.997 120.942 215.932 120.845 215.887 120.737C215.842 120.63 215.82 120.515 215.82 120.398C215.82 120.282 215.842 120.167 215.887 120.06C215.932 119.952 215.997 119.855 216.079 119.773C216.162 119.691 216.259 119.626 216.367 119.581C216.474 119.537 216.589 119.515 216.706 119.515H242.203C242.436 119.516 242.66 119.61 242.824 119.775C242.989 119.941 243.082 120.165 243.082 120.398C243.082 120.632 242.989 120.856 242.824 121.022C242.66 121.187 242.436 121.281 242.203 121.282Z" fill="#00D68F"/>
<path d="M190.336 153.603C190.186 153.643 190.039 153.694 189.897 153.756L178.158 146.251L178.305 142.868L173.231 141.979L172.39 147.944C172.322 148.425 172.412 148.916 172.647 149.343C172.881 149.769 173.248 150.107 173.691 150.307L188.136 156.829C188.211 157.424 188.464 157.982 188.863 158.429C189.262 158.875 189.787 159.19 190.369 159.331C190.951 159.472 191.562 159.432 192.121 159.217C192.68 159.001 193.16 158.621 193.497 158.126C193.835 157.631 194.014 157.045 194.01 156.446C194.007 155.847 193.821 155.263 193.478 154.772C193.135 154.281 192.651 153.906 192.089 153.698C191.528 153.489 190.917 153.456 190.336 153.603H190.336Z" fill="#FFB6B6"/>
<path d="M178.838 132.538L177.954 131.422C177.954 131.422 174.401 130.277 172.483 135.077C170.565 139.876 172.363 144.555 172.363 144.555L180.756 145.275L181.356 137.476L178.838 132.538Z" fill="#00D68F"/>
<path d="M269.76 177.891H73.3648C73.3012 177.891 73.2402 177.865 73.1952 177.82C73.1503 177.775 73.125 177.714 73.125 177.651C73.125 177.587 73.1503 177.526 73.1952 177.481C73.2402 177.436 73.3012 177.411 73.3648 177.411H269.76C269.824 177.411 269.885 177.436 269.93 177.481C269.975 177.526 270 177.587 270 177.651C270 177.714 269.975 177.775 269.93 177.82C269.885 177.865 269.824 177.891 269.76 177.891Z" fill="#C5CEE0"/>
</g>
<defs>
<clipPath id="clip0_354_2858">
<rect width="196.875" height="130.781" fill="white" transform="translate(73.125 47.1094)"/>
</clipPath>
</defs>
</svg>
